<svg width="25" height="21" viewBox="0 0 25 21" fill="none" xmlns="http://www.w3.org/2000/svg">
<path d="M24.6133 3.3483C23.7087 3.74913 22.737 4.01996 21.7154 4.14238C22.7695 3.51166 23.5581 2.51897 23.9341 1.34955C22.9437 1.93779 21.8598 2.35184 20.7296 2.57371C19.9695 1.76215 18.9627 1.22423 17.8656 1.04348C16.7684 0.86272 15.6423 1.04924 14.6621 1.57407C13.6818 2.0989 12.9022 2.93269 12.4444 3.94598C11.9865 4.95926 11.8761 6.09536 12.1301 7.17788C10.1234 7.07713 8.16032 6.55556 6.36826 5.64703C4.57621 4.7385 2.99521 3.4633 1.72789 1.90421C1.29455 2.65171 1.04539 3.51838 1.04539 4.44138C1.0449 5.27229 1.24952 6.09048 1.64109 6.82334C2.03266 7.5562 2.59906 8.18109 3.29005 8.64255C2.48869 8.61705 1.705 8.40051 1.00422 8.01096V8.07596C1.00414 9.24135 1.40726 10.3709 2.14517 11.2729C2.88308 12.1749 3.91034 12.7938 5.05264 13.0246C4.30924 13.2258 3.52984 13.2555 2.7733 13.1113C3.09559 14.114 3.72338 14.9909 4.56878 15.6191C5.41419 16.2474 6.43488 16.5955 7.48797 16.6148C5.70029 18.0182 3.49251 18.7794 1.2198 18.776C0.817216 18.7762 0.414969 18.7526 0.0151367 18.7056C2.32207 20.1889 5.00751 20.9761 7.75014 20.973C17.0343 20.973 22.1097 13.2835 22.1097 6.61455C22.1097 6.39788 22.1043 6.17905 22.0946 5.96238C23.0818 5.24844 23.934 4.36435 24.6111 3.35155L24.6133 3.3483Z" fill="white"/>
</svg>
